<mxfile host="app.diagrams.net" modified="2023-12-14T00:58:43.255Z" agent="Mozilla/5.0 (Windows NT 10.0; Win64; x64) AppleWebKit/537.36 (KHTML, like Gecko) Chrome/119.0.0.0 Safari/537.36" etag="VoQw27gflSKFuFGzA5RI" version="22.1.8" type="device">
  <diagram name="Página-1" id="ShkguLGQ3qruyOwssSoo">
    <mxGraphModel dx="1621" dy="647" grid="1" gridSize="10" guides="1" tooltips="1" connect="1" arrows="1" fold="1" page="0" pageScale="1" pageWidth="827" pageHeight="1169" math="0" shadow="0">
      <root>
        <mxCell id="0" />
        <mxCell id="1" parent="0" />
        <mxCell id="j4uWkPVNsKlpiGM5nw-s-1" value="&lt;font style=&quot;font-size: 18px;&quot;&gt;Produto&lt;/font&gt;" style="rounded=0;whiteSpace=wrap;html=1;" vertex="1" parent="1">
          <mxGeometry x="80" y="220" width="240" height="150" as="geometry" />
        </mxCell>
        <mxCell id="j4uWkPVNsKlpiGM5nw-s-5" style="rounded=0;orthogonalLoop=1;jettySize=auto;html=1;endArrow=none;endFill=0;" edge="1" parent="1" source="j4uWkPVNsKlpiGM5nw-s-2" target="j4uWkPVNsKlpiGM5nw-s-1">
          <mxGeometry relative="1" as="geometry" />
        </mxCell>
        <mxCell id="j4uWkPVNsKlpiGM5nw-s-2" value="&lt;font style=&quot;font-size: 14px;&quot;&gt;Nome&lt;/font&gt;" style="ellipse;whiteSpace=wrap;html=1;" vertex="1" parent="1">
          <mxGeometry x="-120" y="255" width="120" height="80" as="geometry" />
        </mxCell>
        <mxCell id="j4uWkPVNsKlpiGM5nw-s-7" style="edgeStyle=none;shape=connector;rounded=0;orthogonalLoop=1;jettySize=auto;html=1;entryX=1;entryY=0.5;entryDx=0;entryDy=0;labelBackgroundColor=default;strokeColor=default;align=center;verticalAlign=middle;fontFamily=Helvetica;fontSize=11;fontColor=default;endArrow=none;endFill=0;" edge="1" parent="1" source="j4uWkPVNsKlpiGM5nw-s-6" target="j4uWkPVNsKlpiGM5nw-s-1">
          <mxGeometry relative="1" as="geometry" />
        </mxCell>
        <mxCell id="j4uWkPVNsKlpiGM5nw-s-6" value="Descrição" style="ellipse;whiteSpace=wrap;html=1;fontFamily=Helvetica;fontSize=11;fontColor=default;" vertex="1" parent="1">
          <mxGeometry x="460" y="190" width="120" height="80" as="geometry" />
        </mxCell>
        <mxCell id="j4uWkPVNsKlpiGM5nw-s-9" style="edgeStyle=none;shape=connector;rounded=0;orthogonalLoop=1;jettySize=auto;html=1;entryX=0.5;entryY=0;entryDx=0;entryDy=0;labelBackgroundColor=default;strokeColor=default;align=center;verticalAlign=middle;fontFamily=Helvetica;fontSize=11;fontColor=default;endArrow=none;endFill=0;" edge="1" parent="1" source="j4uWkPVNsKlpiGM5nw-s-8" target="j4uWkPVNsKlpiGM5nw-s-1">
          <mxGeometry relative="1" as="geometry" />
        </mxCell>
        <mxCell id="j4uWkPVNsKlpiGM5nw-s-8" value="Custo" style="ellipse;whiteSpace=wrap;html=1;fontFamily=Helvetica;fontSize=11;fontColor=default;" vertex="1" parent="1">
          <mxGeometry x="140" y="90" width="120" height="80" as="geometry" />
        </mxCell>
        <mxCell id="j4uWkPVNsKlpiGM5nw-s-11" style="edgeStyle=none;shape=connector;rounded=0;orthogonalLoop=1;jettySize=auto;html=1;labelBackgroundColor=default;strokeColor=default;align=center;verticalAlign=middle;fontFamily=Helvetica;fontSize=11;fontColor=default;endArrow=none;endFill=0;" edge="1" parent="1" source="j4uWkPVNsKlpiGM5nw-s-10" target="j4uWkPVNsKlpiGM5nw-s-1">
          <mxGeometry relative="1" as="geometry" />
        </mxCell>
        <mxCell id="j4uWkPVNsKlpiGM5nw-s-10" value="ID" style="ellipse;whiteSpace=wrap;html=1;fontFamily=Helvetica;fontSize=11;fontColor=default;" vertex="1" parent="1">
          <mxGeometry x="360" y="120" width="120" height="80" as="geometry" />
        </mxCell>
        <mxCell id="j4uWkPVNsKlpiGM5nw-s-14" style="edgeStyle=none;shape=connector;rounded=0;orthogonalLoop=1;jettySize=auto;html=1;labelBackgroundColor=default;strokeColor=default;align=center;verticalAlign=middle;fontFamily=Helvetica;fontSize=11;fontColor=default;endArrow=none;endFill=0;" edge="1" parent="1" source="j4uWkPVNsKlpiGM5nw-s-13" target="j4uWkPVNsKlpiGM5nw-s-1">
          <mxGeometry relative="1" as="geometry" />
        </mxCell>
        <mxCell id="j4uWkPVNsKlpiGM5nw-s-13" value="CATEGORIA" style="ellipse;whiteSpace=wrap;html=1;fontFamily=Helvetica;fontSize=11;fontColor=default;" vertex="1" parent="1">
          <mxGeometry x="-70" y="120" width="120" height="80" as="geometry" />
        </mxCell>
        <mxCell id="j4uWkPVNsKlpiGM5nw-s-25" value="&lt;font style=&quot;font-size: 18px;&quot;&gt;Estoque&lt;/font&gt;" style="rounded=0;whiteSpace=wrap;html=1;" vertex="1" parent="1">
          <mxGeometry x="710" y="220" width="240" height="150" as="geometry" />
        </mxCell>
        <mxCell id="j4uWkPVNsKlpiGM5nw-s-28" style="edgeStyle=none;shape=connector;rounded=0;orthogonalLoop=1;jettySize=auto;html=1;entryX=0.5;entryY=0;entryDx=0;entryDy=0;labelBackgroundColor=default;strokeColor=default;align=center;verticalAlign=middle;fontFamily=Helvetica;fontSize=11;fontColor=default;endArrow=none;endFill=0;" edge="1" parent="1" source="j4uWkPVNsKlpiGM5nw-s-27" target="j4uWkPVNsKlpiGM5nw-s-25">
          <mxGeometry relative="1" as="geometry" />
        </mxCell>
        <mxCell id="j4uWkPVNsKlpiGM5nw-s-27" value="Quantidade" style="ellipse;whiteSpace=wrap;html=1;fontFamily=Helvetica;fontSize=11;fontColor=default;" vertex="1" parent="1">
          <mxGeometry x="770" y="95" width="120" height="80" as="geometry" />
        </mxCell>
        <mxCell id="j4uWkPVNsKlpiGM5nw-s-32" style="edgeStyle=none;shape=connector;rounded=0;orthogonalLoop=1;jettySize=auto;html=1;labelBackgroundColor=default;strokeColor=default;align=center;verticalAlign=middle;fontFamily=Helvetica;fontSize=11;fontColor=default;endArrow=none;endFill=0;" edge="1" parent="1" source="j4uWkPVNsKlpiGM5nw-s-29" target="j4uWkPVNsKlpiGM5nw-s-25">
          <mxGeometry relative="1" as="geometry" />
        </mxCell>
        <mxCell id="j4uWkPVNsKlpiGM5nw-s-29" value="DATA" style="ellipse;whiteSpace=wrap;html=1;fontFamily=Helvetica;fontSize=11;fontColor=default;" vertex="1" parent="1">
          <mxGeometry x="600" y="100" width="120" height="80" as="geometry" />
        </mxCell>
        <mxCell id="j4uWkPVNsKlpiGM5nw-s-31" style="edgeStyle=none;shape=connector;rounded=0;orthogonalLoop=1;jettySize=auto;html=1;labelBackgroundColor=default;strokeColor=default;align=center;verticalAlign=middle;fontFamily=Helvetica;fontSize=11;fontColor=default;endArrow=none;endFill=0;" edge="1" parent="1" source="j4uWkPVNsKlpiGM5nw-s-30" target="j4uWkPVNsKlpiGM5nw-s-25">
          <mxGeometry relative="1" as="geometry" />
        </mxCell>
        <mxCell id="j4uWkPVNsKlpiGM5nw-s-30" value="VALIDADE" style="ellipse;whiteSpace=wrap;html=1;fontFamily=Helvetica;fontSize=11;fontColor=default;" vertex="1" parent="1">
          <mxGeometry x="960" y="100" width="120" height="80" as="geometry" />
        </mxCell>
        <mxCell id="j4uWkPVNsKlpiGM5nw-s-35" value="" style="edgeStyle=none;shape=connector;rounded=0;orthogonalLoop=1;jettySize=auto;html=1;labelBackgroundColor=default;strokeColor=default;align=center;verticalAlign=middle;fontFamily=Helvetica;fontSize=11;fontColor=default;endArrow=none;endFill=0;" edge="1" parent="1" source="j4uWkPVNsKlpiGM5nw-s-33" target="j4uWkPVNsKlpiGM5nw-s-25">
          <mxGeometry relative="1" as="geometry" />
        </mxCell>
        <mxCell id="j4uWkPVNsKlpiGM5nw-s-33" value="ID" style="ellipse;whiteSpace=wrap;html=1;fontFamily=Helvetica;fontSize=11;fontColor=default;" vertex="1" parent="1">
          <mxGeometry x="980" y="260" width="120" height="80" as="geometry" />
        </mxCell>
        <mxCell id="j4uWkPVNsKlpiGM5nw-s-38" style="edgeStyle=none;shape=connector;rounded=0;orthogonalLoop=1;jettySize=auto;html=1;labelBackgroundColor=default;strokeColor=default;align=center;verticalAlign=middle;fontFamily=Helvetica;fontSize=11;fontColor=default;endArrow=none;endFill=0;" edge="1" parent="1" source="j4uWkPVNsKlpiGM5nw-s-36" target="j4uWkPVNsKlpiGM5nw-s-25">
          <mxGeometry relative="1" as="geometry" />
        </mxCell>
        <mxCell id="j4uWkPVNsKlpiGM5nw-s-40" value="1" style="edgeLabel;html=1;align=center;verticalAlign=middle;resizable=0;points=[];fontSize=11;fontFamily=Helvetica;fontColor=default;" vertex="1" connectable="0" parent="j4uWkPVNsKlpiGM5nw-s-38">
          <mxGeometry x="0.6693" y="-1" relative="1" as="geometry">
            <mxPoint y="-19" as="offset" />
          </mxGeometry>
        </mxCell>
        <mxCell id="j4uWkPVNsKlpiGM5nw-s-36" value="ESTA EM ESTOQUE" style="rhombus;whiteSpace=wrap;html=1;fontFamily=Helvetica;fontSize=11;fontColor=default;" vertex="1" parent="1">
          <mxGeometry x="450" y="290" width="170" height="150" as="geometry" />
        </mxCell>
        <mxCell id="j4uWkPVNsKlpiGM5nw-s-37" style="edgeStyle=none;shape=connector;rounded=0;orthogonalLoop=1;jettySize=auto;html=1;entryX=1.007;entryY=0.907;entryDx=0;entryDy=0;entryPerimeter=0;labelBackgroundColor=default;strokeColor=default;align=center;verticalAlign=middle;fontFamily=Helvetica;fontSize=11;fontColor=default;endArrow=none;endFill=0;" edge="1" parent="1" source="j4uWkPVNsKlpiGM5nw-s-36" target="j4uWkPVNsKlpiGM5nw-s-1">
          <mxGeometry relative="1" as="geometry" />
        </mxCell>
        <mxCell id="j4uWkPVNsKlpiGM5nw-s-39" value="N" style="edgeLabel;html=1;align=center;verticalAlign=middle;resizable=0;points=[];fontSize=11;fontFamily=Helvetica;fontColor=default;" vertex="1" connectable="0" parent="j4uWkPVNsKlpiGM5nw-s-37">
          <mxGeometry x="0.4586" relative="1" as="geometry">
            <mxPoint x="2" y="-18" as="offset" />
          </mxGeometry>
        </mxCell>
        <mxCell id="j4uWkPVNsKlpiGM5nw-s-41" value="&lt;font style=&quot;font-size: 18px;&quot;&gt;Fornecedor&lt;/font&gt;" style="rounded=0;whiteSpace=wrap;html=1;" vertex="1" parent="1">
          <mxGeometry x="-110" y="480" width="240" height="150" as="geometry" />
        </mxCell>
        <mxCell id="j4uWkPVNsKlpiGM5nw-s-46" style="edgeStyle=none;shape=connector;rounded=0;orthogonalLoop=1;jettySize=auto;html=1;entryX=0;entryY=0.5;entryDx=0;entryDy=0;labelBackgroundColor=default;strokeColor=default;align=center;verticalAlign=middle;fontFamily=Helvetica;fontSize=11;fontColor=default;endArrow=none;endFill=0;" edge="1" parent="1" source="j4uWkPVNsKlpiGM5nw-s-42" target="j4uWkPVNsKlpiGM5nw-s-41">
          <mxGeometry relative="1" as="geometry" />
        </mxCell>
        <mxCell id="j4uWkPVNsKlpiGM5nw-s-42" value="ID" style="ellipse;whiteSpace=wrap;html=1;fontFamily=Helvetica;fontSize=11;fontColor=default;" vertex="1" parent="1">
          <mxGeometry x="-230" y="515" width="120" height="80" as="geometry" />
        </mxCell>
        <mxCell id="j4uWkPVNsKlpiGM5nw-s-43" value="CNPJ" style="ellipse;whiteSpace=wrap;html=1;fontFamily=Helvetica;fontSize=11;fontColor=default;" vertex="1" parent="1">
          <mxGeometry x="-250" y="600" width="120" height="80" as="geometry" />
        </mxCell>
        <mxCell id="j4uWkPVNsKlpiGM5nw-s-44" value="CONTATO" style="ellipse;whiteSpace=wrap;html=1;fontFamily=Helvetica;fontSize=11;fontColor=default;" vertex="1" parent="1">
          <mxGeometry x="-170" y="670" width="120" height="80" as="geometry" />
        </mxCell>
        <mxCell id="j4uWkPVNsKlpiGM5nw-s-45" value="ENDEREÇO" style="ellipse;whiteSpace=wrap;html=1;fontFamily=Helvetica;fontSize=11;fontColor=default;" vertex="1" parent="1">
          <mxGeometry x="190" y="520" width="120" height="80" as="geometry" />
        </mxCell>
        <mxCell id="j4uWkPVNsKlpiGM5nw-s-47" style="edgeStyle=none;shape=connector;rounded=0;orthogonalLoop=1;jettySize=auto;html=1;entryX=0.04;entryY=1.013;entryDx=0;entryDy=0;entryPerimeter=0;labelBackgroundColor=default;strokeColor=default;align=center;verticalAlign=middle;fontFamily=Helvetica;fontSize=11;fontColor=default;endArrow=none;endFill=0;" edge="1" parent="1" source="j4uWkPVNsKlpiGM5nw-s-43" target="j4uWkPVNsKlpiGM5nw-s-41">
          <mxGeometry relative="1" as="geometry" />
        </mxCell>
        <mxCell id="j4uWkPVNsKlpiGM5nw-s-49" style="edgeStyle=none;shape=connector;rounded=0;orthogonalLoop=1;jettySize=auto;html=1;entryX=1.014;entryY=0.563;entryDx=0;entryDy=0;entryPerimeter=0;labelBackgroundColor=default;strokeColor=default;align=center;verticalAlign=middle;fontFamily=Helvetica;fontSize=11;fontColor=default;endArrow=none;endFill=0;" edge="1" parent="1" source="j4uWkPVNsKlpiGM5nw-s-45" target="j4uWkPVNsKlpiGM5nw-s-41">
          <mxGeometry relative="1" as="geometry" />
        </mxCell>
        <mxCell id="j4uWkPVNsKlpiGM5nw-s-50" style="edgeStyle=none;shape=connector;rounded=0;orthogonalLoop=1;jettySize=auto;html=1;entryX=0.84;entryY=1.013;entryDx=0;entryDy=0;entryPerimeter=0;labelBackgroundColor=default;strokeColor=default;align=center;verticalAlign=middle;fontFamily=Helvetica;fontSize=11;fontColor=default;endArrow=none;endFill=0;" edge="1" parent="1" source="j4uWkPVNsKlpiGM5nw-s-44" target="j4uWkPVNsKlpiGM5nw-s-41">
          <mxGeometry relative="1" as="geometry" />
        </mxCell>
        <mxCell id="j4uWkPVNsKlpiGM5nw-s-51" value="RUA" style="ellipse;whiteSpace=wrap;html=1;fontFamily=Helvetica;fontSize=11;fontColor=default;" vertex="1" parent="1">
          <mxGeometry x="340" y="500" width="120" height="80" as="geometry" />
        </mxCell>
        <mxCell id="j4uWkPVNsKlpiGM5nw-s-58" style="edgeStyle=none;shape=connector;rounded=0;orthogonalLoop=1;jettySize=auto;html=1;entryX=1;entryY=1;entryDx=0;entryDy=0;labelBackgroundColor=default;strokeColor=default;align=center;verticalAlign=middle;fontFamily=Helvetica;fontSize=11;fontColor=default;endArrow=none;endFill=0;" edge="1" parent="1" source="j4uWkPVNsKlpiGM5nw-s-53" target="j4uWkPVNsKlpiGM5nw-s-45">
          <mxGeometry relative="1" as="geometry" />
        </mxCell>
        <mxCell id="j4uWkPVNsKlpiGM5nw-s-53" value="CIDADE" style="ellipse;whiteSpace=wrap;html=1;fontFamily=Helvetica;fontSize=11;fontColor=default;" vertex="1" parent="1">
          <mxGeometry x="410" y="660" width="120" height="80" as="geometry" />
        </mxCell>
        <mxCell id="j4uWkPVNsKlpiGM5nw-s-88" style="edgeStyle=none;shape=connector;rounded=0;orthogonalLoop=1;jettySize=auto;html=1;labelBackgroundColor=default;strokeColor=default;align=center;verticalAlign=middle;fontFamily=Helvetica;fontSize=11;fontColor=default;endArrow=none;endFill=0;" edge="1" parent="1" source="j4uWkPVNsKlpiGM5nw-s-54" target="j4uWkPVNsKlpiGM5nw-s-45">
          <mxGeometry relative="1" as="geometry" />
        </mxCell>
        <mxCell id="j4uWkPVNsKlpiGM5nw-s-54" value="ESTADO" style="ellipse;whiteSpace=wrap;html=1;fontFamily=Helvetica;fontSize=11;fontColor=default;" vertex="1" parent="1">
          <mxGeometry x="280" y="670" width="120" height="80" as="geometry" />
        </mxCell>
        <mxCell id="j4uWkPVNsKlpiGM5nw-s-55" value="NUMERO" style="ellipse;whiteSpace=wrap;html=1;fontFamily=Helvetica;fontSize=11;fontColor=default;" vertex="1" parent="1">
          <mxGeometry x="170" y="670" width="120" height="80" as="geometry" />
        </mxCell>
        <mxCell id="j4uWkPVNsKlpiGM5nw-s-56" style="edgeStyle=none;shape=connector;rounded=0;orthogonalLoop=1;jettySize=auto;html=1;entryX=0.918;entryY=0.251;entryDx=0;entryDy=0;entryPerimeter=0;labelBackgroundColor=default;strokeColor=default;align=center;verticalAlign=middle;fontFamily=Helvetica;fontSize=11;fontColor=default;endArrow=none;endFill=0;" edge="1" parent="1" source="j4uWkPVNsKlpiGM5nw-s-51" target="j4uWkPVNsKlpiGM5nw-s-45">
          <mxGeometry relative="1" as="geometry" />
        </mxCell>
        <mxCell id="j4uWkPVNsKlpiGM5nw-s-57" style="edgeStyle=none;shape=connector;rounded=0;orthogonalLoop=1;jettySize=auto;html=1;entryX=0.999;entryY=0.707;entryDx=0;entryDy=0;entryPerimeter=0;labelBackgroundColor=default;strokeColor=default;align=center;verticalAlign=middle;fontFamily=Helvetica;fontSize=11;fontColor=default;endArrow=none;endFill=0;" edge="1" parent="1" source="j4uWkPVNsKlpiGM5nw-s-52" target="j4uWkPVNsKlpiGM5nw-s-45">
          <mxGeometry relative="1" as="geometry" />
        </mxCell>
        <mxCell id="j4uWkPVNsKlpiGM5nw-s-59" style="edgeStyle=none;shape=connector;rounded=0;orthogonalLoop=1;jettySize=auto;html=1;entryX=0.718;entryY=0.974;entryDx=0;entryDy=0;entryPerimeter=0;labelBackgroundColor=default;strokeColor=default;align=center;verticalAlign=middle;fontFamily=Helvetica;fontSize=11;fontColor=default;endArrow=none;endFill=0;" edge="1" parent="1" source="j4uWkPVNsKlpiGM5nw-s-52" target="j4uWkPVNsKlpiGM5nw-s-45">
          <mxGeometry relative="1" as="geometry" />
        </mxCell>
        <mxCell id="j4uWkPVNsKlpiGM5nw-s-60" style="edgeStyle=none;shape=connector;rounded=0;orthogonalLoop=1;jettySize=auto;html=1;entryX=0.258;entryY=0.974;entryDx=0;entryDy=0;entryPerimeter=0;labelBackgroundColor=default;strokeColor=default;align=center;verticalAlign=middle;fontFamily=Helvetica;fontSize=11;fontColor=default;endArrow=none;endFill=0;" edge="1" parent="1" source="j4uWkPVNsKlpiGM5nw-s-55" target="j4uWkPVNsKlpiGM5nw-s-45">
          <mxGeometry relative="1" as="geometry" />
        </mxCell>
        <mxCell id="j4uWkPVNsKlpiGM5nw-s-61" value="RAZAO SOCIAL" style="ellipse;whiteSpace=wrap;html=1;fontFamily=Helvetica;fontSize=11;fontColor=default;" vertex="1" parent="1">
          <mxGeometry x="-100" y="380" width="120" height="80" as="geometry" />
        </mxCell>
        <mxCell id="j4uWkPVNsKlpiGM5nw-s-63" style="edgeStyle=none;shape=connector;rounded=0;orthogonalLoop=1;jettySize=auto;html=1;entryX=1;entryY=0.75;entryDx=0;entryDy=0;labelBackgroundColor=default;strokeColor=default;align=center;verticalAlign=middle;fontFamily=Helvetica;fontSize=11;fontColor=default;endArrow=none;endFill=0;" edge="1" parent="1" source="j4uWkPVNsKlpiGM5nw-s-62" target="j4uWkPVNsKlpiGM5nw-s-41">
          <mxGeometry relative="1" as="geometry" />
        </mxCell>
        <mxCell id="j4uWkPVNsKlpiGM5nw-s-62" value="NOME" style="ellipse;whiteSpace=wrap;html=1;fontFamily=Helvetica;fontSize=11;fontColor=default;" vertex="1" parent="1">
          <mxGeometry x="-20" y="680" width="120" height="80" as="geometry" />
        </mxCell>
        <mxCell id="j4uWkPVNsKlpiGM5nw-s-65" style="edgeStyle=none;shape=connector;rounded=0;orthogonalLoop=1;jettySize=auto;html=1;entryX=0.75;entryY=0;entryDx=0;entryDy=0;labelBackgroundColor=default;strokeColor=default;align=center;verticalAlign=middle;fontFamily=Helvetica;fontSize=11;fontColor=default;endArrow=none;endFill=0;" edge="1" parent="1" source="j4uWkPVNsKlpiGM5nw-s-64" target="j4uWkPVNsKlpiGM5nw-s-41">
          <mxGeometry relative="1" as="geometry" />
        </mxCell>
        <mxCell id="j4uWkPVNsKlpiGM5nw-s-66" value="N" style="edgeLabel;html=1;align=center;verticalAlign=middle;resizable=0;points=[];fontSize=11;fontFamily=Helvetica;fontColor=default;" vertex="1" connectable="0" parent="j4uWkPVNsKlpiGM5nw-s-65">
          <mxGeometry x="0.2387" relative="1" as="geometry">
            <mxPoint as="offset" />
          </mxGeometry>
        </mxCell>
        <mxCell id="j4uWkPVNsKlpiGM5nw-s-68" value="" style="edgeStyle=none;shape=connector;rounded=0;orthogonalLoop=1;jettySize=auto;html=1;labelBackgroundColor=default;strokeColor=default;align=center;verticalAlign=middle;fontFamily=Helvetica;fontSize=11;fontColor=default;endArrow=none;endFill=0;" edge="1" parent="1" source="j4uWkPVNsKlpiGM5nw-s-64" target="j4uWkPVNsKlpiGM5nw-s-41">
          <mxGeometry relative="1" as="geometry" />
        </mxCell>
        <mxCell id="j4uWkPVNsKlpiGM5nw-s-64" value="TEM FORNECEDOR" style="rhombus;whiteSpace=wrap;html=1;fontFamily=Helvetica;fontSize=11;fontColor=default;" vertex="1" parent="1">
          <mxGeometry x="330" y="370" width="130" height="120" as="geometry" />
        </mxCell>
        <mxCell id="j4uWkPVNsKlpiGM5nw-s-67" style="edgeStyle=none;shape=connector;rounded=0;orthogonalLoop=1;jettySize=auto;html=1;entryX=0.5;entryY=0;entryDx=0;entryDy=0;labelBackgroundColor=default;strokeColor=default;align=center;verticalAlign=middle;fontFamily=Helvetica;fontSize=11;fontColor=default;endArrow=none;endFill=0;" edge="1" parent="1" source="j4uWkPVNsKlpiGM5nw-s-64" target="j4uWkPVNsKlpiGM5nw-s-64">
          <mxGeometry relative="1" as="geometry" />
        </mxCell>
        <mxCell id="j4uWkPVNsKlpiGM5nw-s-69" style="edgeStyle=none;shape=connector;rounded=0;orthogonalLoop=1;jettySize=auto;html=1;entryX=0.866;entryY=1.019;entryDx=0;entryDy=0;entryPerimeter=0;labelBackgroundColor=default;strokeColor=default;align=center;verticalAlign=middle;fontFamily=Helvetica;fontSize=11;fontColor=default;endArrow=none;endFill=0;" edge="1" parent="1" source="j4uWkPVNsKlpiGM5nw-s-64" target="j4uWkPVNsKlpiGM5nw-s-1">
          <mxGeometry relative="1" as="geometry" />
        </mxCell>
        <mxCell id="j4uWkPVNsKlpiGM5nw-s-70" value="N" style="edgeLabel;html=1;align=center;verticalAlign=middle;resizable=0;points=[];fontSize=11;fontFamily=Helvetica;fontColor=default;" vertex="1" connectable="0" parent="j4uWkPVNsKlpiGM5nw-s-69">
          <mxGeometry x="0.1356" y="-2" relative="1" as="geometry">
            <mxPoint as="offset" />
          </mxGeometry>
        </mxCell>
        <mxCell id="j4uWkPVNsKlpiGM5nw-s-52" value="BAIRRO" style="ellipse;whiteSpace=wrap;html=1;fontFamily=Helvetica;fontSize=11;fontColor=default;" vertex="1" parent="1">
          <mxGeometry x="400" y="580" width="120" height="80" as="geometry" />
        </mxCell>
        <mxCell id="j4uWkPVNsKlpiGM5nw-s-89" value="&lt;span style=&quot;font-size: 18px;&quot;&gt;MOVIMENTACAO DE ESTOQUE&lt;/span&gt;" style="rounded=0;whiteSpace=wrap;html=1;" vertex="1" parent="1">
          <mxGeometry x="800" y="520" width="240" height="150" as="geometry" />
        </mxCell>
        <mxCell id="j4uWkPVNsKlpiGM5nw-s-90" value="DATA DE ENTRADA" style="ellipse;whiteSpace=wrap;html=1;fontFamily=Helvetica;fontSize=11;fontColor=default;" vertex="1" parent="1">
          <mxGeometry x="640" y="430" width="120" height="80" as="geometry" />
        </mxCell>
        <mxCell id="j4uWkPVNsKlpiGM5nw-s-91" value="DATA DE SAIDA" style="ellipse;whiteSpace=wrap;html=1;fontFamily=Helvetica;fontSize=11;fontColor=default;" vertex="1" parent="1">
          <mxGeometry x="640" y="565" width="120" height="80" as="geometry" />
        </mxCell>
        <mxCell id="j4uWkPVNsKlpiGM5nw-s-92" value="PRODUTO" style="ellipse;whiteSpace=wrap;html=1;fontFamily=Helvetica;fontSize=11;fontColor=default;" vertex="1" parent="1">
          <mxGeometry x="640" y="680" width="120" height="80" as="geometry" />
        </mxCell>
        <mxCell id="j4uWkPVNsKlpiGM5nw-s-93" style="edgeStyle=none;shape=connector;rounded=0;orthogonalLoop=1;jettySize=auto;html=1;entryX=0.068;entryY=-0.016;entryDx=0;entryDy=0;entryPerimeter=0;labelBackgroundColor=default;strokeColor=default;align=center;verticalAlign=middle;fontFamily=Helvetica;fontSize=11;fontColor=default;endArrow=none;endFill=0;" edge="1" parent="1" source="j4uWkPVNsKlpiGM5nw-s-90" target="j4uWkPVNsKlpiGM5nw-s-89">
          <mxGeometry relative="1" as="geometry" />
        </mxCell>
        <mxCell id="j4uWkPVNsKlpiGM5nw-s-94" style="edgeStyle=none;shape=connector;rounded=0;orthogonalLoop=1;jettySize=auto;html=1;entryX=0.001;entryY=0.582;entryDx=0;entryDy=0;entryPerimeter=0;labelBackgroundColor=default;strokeColor=default;align=center;verticalAlign=middle;fontFamily=Helvetica;fontSize=11;fontColor=default;endArrow=none;endFill=0;" edge="1" parent="1" source="j4uWkPVNsKlpiGM5nw-s-91" target="j4uWkPVNsKlpiGM5nw-s-89">
          <mxGeometry relative="1" as="geometry" />
        </mxCell>
        <mxCell id="j4uWkPVNsKlpiGM5nw-s-95" style="edgeStyle=none;shape=connector;rounded=0;orthogonalLoop=1;jettySize=auto;html=1;entryX=0.031;entryY=1.009;entryDx=0;entryDy=0;entryPerimeter=0;labelBackgroundColor=default;strokeColor=default;align=center;verticalAlign=middle;fontFamily=Helvetica;fontSize=11;fontColor=default;endArrow=none;endFill=0;" edge="1" parent="1" source="j4uWkPVNsKlpiGM5nw-s-92" target="j4uWkPVNsKlpiGM5nw-s-89">
          <mxGeometry relative="1" as="geometry" />
        </mxCell>
        <mxCell id="j4uWkPVNsKlpiGM5nw-s-96" value="" style="edgeStyle=none;shape=connector;rounded=0;orthogonalLoop=1;jettySize=auto;html=1;labelBackgroundColor=default;strokeColor=default;align=center;verticalAlign=middle;fontFamily=Helvetica;fontSize=11;fontColor=default;endArrow=none;endFill=0;" edge="1" parent="1" source="j4uWkPVNsKlpiGM5nw-s-97">
          <mxGeometry relative="1" as="geometry">
            <mxPoint x="915" y="520" as="targetPoint" />
          </mxGeometry>
        </mxCell>
        <mxCell id="j4uWkPVNsKlpiGM5nw-s-97" value="TIPO MOVIMENTAÇÃO" style="ellipse;whiteSpace=wrap;html=1;fontFamily=Helvetica;fontSize=11;fontColor=default;" vertex="1" parent="1">
          <mxGeometry x="850" y="400" width="120" height="80" as="geometry" />
        </mxCell>
        <mxCell id="j4uWkPVNsKlpiGM5nw-s-98" value="" style="edgeStyle=none;shape=connector;rounded=0;orthogonalLoop=1;jettySize=auto;html=1;labelBackgroundColor=default;strokeColor=default;align=center;verticalAlign=middle;fontFamily=Helvetica;fontSize=11;fontColor=default;endArrow=none;endFill=0;" edge="1" parent="1" source="j4uWkPVNsKlpiGM5nw-s-99" target="j4uWkPVNsKlpiGM5nw-s-89">
          <mxGeometry relative="1" as="geometry" />
        </mxCell>
        <mxCell id="j4uWkPVNsKlpiGM5nw-s-99" value="QUANTIDADE" style="ellipse;whiteSpace=wrap;html=1;fontFamily=Helvetica;fontSize=11;fontColor=default;" vertex="1" parent="1">
          <mxGeometry x="1120" y="500" width="120" height="80" as="geometry" />
        </mxCell>
      </root>
    </mxGraphModel>
  </diagram>
</mxfile>
